<svg width="32" height="32" fill="none" xmlns="http://www.w3.org/2000/svg">
    <path d="M29.688 13.037a1 1 0 0 0-.5-.662l-2.975-1.65a8.666 8.666 0 0 0-.538-.938l.063-3.4a1.039 1.039 0 0 0-.325-.762 14 14 0 0 0-5.138-2.963 1.013 1.013 0 0 0-.825.1l-2.912 1.75a15.413 15.413 0 0 0-1.075 0l-2.913-1.75a1.013 1.013 0 0 0-.825-.1 13.887 13.887 0 0 0-5.137 2.975.987.987 0 0 0-.325.75l.062 3.4c-.2.3-.375.613-.55.938L2.8 12.375a.987.987 0 0 0-.487.662 13.925 13.925 0 0 0 0 5.925 1 1 0 0 0 .5.663l2.975 1.65c.159.323.339.637.537.938l-.062 3.4a1.037 1.037 0 0 0 .325.762 14 14 0 0 0 5.137 2.962 1.012 1.012 0 0 0 .825-.1l2.913-1.75h1.075l2.925 1.75c.152.1.33.153.512.15.102-.004.202-.02.3-.05a13.889 13.889 0 0 0 5.138-2.974.989.989 0 0 0 .325-.75l-.063-3.4c.2-.3.375-.613.55-.938l2.975-1.65a.989.989 0 0 0 .488-.663 13.926 13.926 0 0 0 0-5.925ZM16 21.5a5.5 5.5 0 1 1 0-11.001A5.5 5.5 0 0 1 16 21.5Z"/>
</svg>
